<svg id="Layer_1" data-name="Layer 1" xmlns="http://www.w3.org/2000/svg" viewBox="0 0 346 294"><defs><style>.cls-1{fill:#9d2022;}.cls-2{fill:#060000;}</style></defs><path class="cls-1" d="M294.86,205.59v15.07c-.68,0-.32.54-1,.67-10.15,5-43.46-1.71-44.59,6,14,.66,29,.24,41.28,2.68,2.22,4,2.37,10.65,1,15.75-8.74,7.33-29.27,2.7-42.94,5H227.48a14.44,14.44,0,0,0-4-1.67c-.41-.82-.28-2.18-1.32-2.35-14.53.4-30.36,3.51-44.26,1.34-5.51-2.2-5.63-15.07-1-18.42,10.4-4.05,27.91-.68,42.94-2.35,10.85,0-6-.62-6.28-.67-1.48-.21-3.72-2.43-5.29-3.68-6.77-5.47-3.52,2.89-4.29-56.62.05-1.18,1.63-.8,1.32-2.34-.18-6.07.4-12.91-.33-18.43-69.13-62.88-48.66-41.84-48.22-35.84.2,2.7-1.88,4.93-2.31,7.37-.49,2.78.19,6.34.33,9.71.44,10.17-1.65,3,2.31,15.08,1.93,5.79,4.52,14.28,7.6,20.77,10-4.31,8.06-14.22,10.24-18.43,1.84,1.15,2.11,3.89,2.64,6.37,1-.62-1.25-5.82.33-6.37,1.7.62,1.5,3.17,2.64,4.36.6-.48-.4-3.48,1-4,1.71,1.06,1.42,3.11,1.65,5,.8,0-.14-4.61,1.33-5,1.36.51.85,2.92,1.65,4,.16-1.73-.19-4,1.65-4,1.64,1,.83,4.08,2,5.36,1.38-19.94,12.52,23.78,1,31.49-4.32,2.89-9.54,2-15.19,1-1.36.07-.81,2.09-2,2.35-2.63.29-10.23-1.84-12.88.67-.7-.53-1.81-2.25-2.65-2.35.19,0-1.09,2.49-6.6.34-.57-.23-.89-.94-1.65-1.34s-2-.27-2.65-.67c-.85-.54-1.46-1.81-2.31-2.35-1.12-.72-2.33-.58-3-1-4.24-2.84.17-25.38-4.62-33.17,1-2.38-3.5-35.52-3.64-36.51.2-1.43-1.78-.65-1.32-2.35,2.83-7.34.61-16.33-.66-24.12V79A135.55,135.55,0,0,0,135,64.22a6.37,6.37,0,0,0,2.32-2h1.32c.45.76,2.3.12,3.3.33,1.3,1,1.71,2.95,2.31,4.69,33.37,26.3,20,18.25,32.37,24.46.58,1.07,1.2-1.51,2-.34,1.42,1.25,2.86,2.47,4.29,3.69-.54,5.89-9.36-4.14,19.49,20.43,1.17.07.65-1.57,2-1.34,1.48,3.47,13.06,1.85,13.21,17.42,1.71,1.84,3,4.08,5.62,5,1.2,3.69,5.32,6.06,6.6,10.38,0,.1,3,29,3,29.15.44,0,21.37-1.45,21.79-1.34,1.86.48,6.28,5.31,6.94,7.37,1.47,4.59.23,10.91,1.65,16.08C287.1,199.23,294,198.16,294.86,205.59Zm-37-7.37c.12-.58-2-13.64-2-13.74-3.48.18-6-.59-9.58-.33-1.41,6.16-2.8,12.35-4,18.76C246.73,202.53,256.42,205.25,257.87,198.22Zm-21.8,7c1.85-6.6,3.67-13.24,5.28-20.1-5.68.49-11.47.87-16.84,1.68-1.26,1.81-6.52,17.23-6.61,19.43C223.66,205.62,230,205.56,236.07,205.25ZM212,126.53c1.68.64,3.12,3.3,4.62,3-.69-7.22-5.71-11.85-11.89-12.39C208.67,120.46,210.39,116,212,126.53Zm-2,86.09c1.09-2.52,1-35.06-.66-44.89C209.5,214.33,208.74,211.9,210,212.62Zm-.66-46.56a5,5,0,0,0-.66-3C208.8,164.13,208.22,165.94,209.32,166.06Zm-.66-5c-.09-.72.25-3.57-.34-2.68C208.41,159.07,208.07,161.93,208.66,161Zm-8.26-42.88c-10-7.59-18.48-16.77-29.4-23.45-.16-1,.72-1.31,0-2-9.24-6.92-17.62-14.73-26.75-21.77.69,5,3.83,7.51,5.29,11.72,3.06,1,6,.62,8.25,2,2.65,1.66,2.49,5.73,4.63,8C168.48,96.26,198.06,117.65,200.4,118.15Zm-55.82,53.27c1.13.64,3,.56,4.3,1C142.12,156.61,144.64,160,144.58,171.42Z"/><path class="cls-2" d="M30.52,82.56c.52,0,1.19-.45,2-1.34h1.38c.55,0,.88,0,1,0l2.48-.09a12.64,12.64,0,0,1,2.25.87.52.52,0,0,0,.23,0,3.86,3.86,0,0,0,.92-.42l9.09-.27a1.88,1.88,0,0,1,1.11.46,4.65,4.65,0,0,0,1.24.55l.78-.78a37.29,37.29,0,0,1,5.19.37l.14-.14q.78,1,1.47,1c.43,0,.84-.36,1.24-1.1q1.29.09,2.25.09l6.43.83,2,.05a19.22,19.22,0,0,0,2.67.46c.12.61.3,1,.55,1a6.9,6.9,0,0,0,1.84.27c.33-.67.69-1,1-1a6.17,6.17,0,0,1,.92.28l1.57,0a3.78,3.78,0,0,1,1.56.69,5.39,5.39,0,0,0,1.88.92l1-.27L89,87a21.4,21.4,0,0,1,4.64,1.24,3.15,3.15,0,0,0,.69.46l.92.14c.71.52,1.23.88,1.56,1.1l1.93,1.51,2.07,1.29a17.69,17.69,0,0,0,2.8,1.84,6.51,6.51,0,0,0-.27,1.42q0,1.2.78,1.2a3.83,3.83,0,0,0,1.42-.32A29.87,29.87,0,0,0,108,99.37c.7.71,1,1.15,1,1.33l.32,1.38,1.15,3.17.09,2.12.79,2.84.13,3.5.33,1.47-.23,3.49a23.72,23.72,0,0,1-.42,4.09,27.31,27.31,0,0,1-1.06,3.31h-.82a1.32,1.32,0,0,0,0,.32,6.29,6.29,0,0,0,.51,1,1.22,1.22,0,0,1,0,.37,4.08,4.08,0,0,1-.32,1.47c-.24.61-.38,1-.41,1.1-.46,1.44-.91,2.16-1.33,2.16s-.75-.48-1.15-1.43l-1,1.66.32.55-.23.92.83,1.19a23,23,0,0,0-2,3.63l-1.15,1.47-.18.55L101,143.2l-.32.83-1.33,1.56c-.49.58-.82.87-1,.87a1.09,1.09,0,0,1-.64-.41h-.69l-.6-.78a2.62,2.62,0,0,0-.83,1.42,2.29,2.29,0,0,0,.65,1.2,20.12,20.12,0,0,1-2.8,2.16A6.58,6.58,0,0,0,92,151.38a10.84,10.84,0,0,0-2.94-.78l-.18.55a6,6,0,0,1,.78,1.38A26,26,0,0,1,86.52,155l-3.12,1.61a8.88,8.88,0,0,0-1.52,1.29,3.24,3.24,0,0,0-1.93-1,3.39,3.39,0,0,1-.83,1.88,26.65,26.65,0,0,1-2.84.83,1.56,1.56,0,0,0-.69.37,20.82,20.82,0,0,1-1.79,1.42h-1a5.07,5.07,0,0,0-1.28.83,12.33,12.33,0,0,1-2,.78l-.83.37a17.91,17.91,0,0,1-3.86,1.47,13.87,13.87,0,0,0-3,.64L57.35,167l-3,.28-1.15.37-2.48.32h-1l-1.93.46-2.62.09-3.63.28-.83-.05c-.8,0-1.41-.08-1.84-.14l-7,.28a2,2,0,0,0-.41.14,1,1,0,0,1-.28,0c-.8,0-1.19-.38-1.19-1.15a.6.6,0,0,1,.29-.55,22.61,22.61,0,0,1,2.09-.87A12.19,12.19,0,0,0,35,165.21a4.73,4.73,0,0,1,.92-2.21c-.09-1-.14-1.7-.14-2.16l.6-3.49v0a5.11,5.11,0,0,0-.14-1.11l-.18-.64c0-.09.21-1.06.64-2.89a3.74,3.74,0,0,0,.09-.78,5.15,5.15,0,0,0-.55-1.7L40,149.13l-3.63-5.84.09-.18c1.16-.24,1.75-.64,1.75-1.19a2.88,2.88,0,0,0-.65-1.43,1.94,1.94,0,0,1-.78.19c-.46,0-.69-.51-.69-1.52l.09-1.15v-6.2a5.74,5.74,0,0,0-.09-1.1c0-.31,0-.49,0-.56a4.11,4.11,0,0,1,.78-2l-.78-.55v-1.34l.73-.73a2.83,2.83,0,0,1-.87-2.07V122.3a37.28,37.28,0,0,0-.14-3.86c0-.43,0-.78,0-1.06a2.63,2.63,0,0,1,.28-1,6.12,6.12,0,0,0,1,.09c.4,0,.6-.17.6-.5,0-.09-.18-.32-.55-.69a3.8,3.8,0,0,0-.83-.92c-.76-.06-1.18-.41-1.24-1.06l.32-2.52-.36-9.1.32-.32h.37a8,8,0,0,0,.5-2c0-.43-.44-.86-1.33-1.28A34.32,34.32,0,0,0,33.92,94l-.1-1.65a8.91,8.91,0,0,1-.36-2.48q0-1.25-.51-4.41a10.24,10.24,0,0,1-1.28,0l-.28,0a4.51,4.51,0,0,0-1,.28,5.27,5.27,0,0,1-1.88.23,2.46,2.46,0,0,1-.28-1,1.71,1.71,0,0,1,1.24-1.56A2.68,2.68,0,0,0,30.52,82.56ZM40.3,92.89h1.11a12.78,12.78,0,0,1,.59,3l.23,1-.09,2.94.14,1.7a10.25,10.25,0,0,0-.69,1.7A10.57,10.57,0,0,0,42,104.7l-.19,3.36.09,2.48a13.69,13.69,0,0,1,.33,1.74,1.93,1.93,0,0,1-.23.83l-1.2-.37a2.18,2.18,0,0,0-.27.87.93.93,0,0,0,.69,1,2.11,2.11,0,0,0,.5.09,5.72,5.72,0,0,1,1.1.27,13.64,13.64,0,0,1-1.47,1.34c-1.47,1.1-2.2,2-2.2,2.66,0,.09,1.24,2,3.72,5.83a20,20,0,0,0-.46,3.54l-1.1.51.23.46,1.15.41.09.46v6.57c0,4.07.07,6.25.23,6.52a3.87,3.87,0,0,1,0,.51c0,.06-.07.57-.23,1.52,0,.3,0,.56,0,.78a31.23,31.23,0,0,0,.5,3.76,3.53,3.53,0,0,1,0,.56,2,2,0,0,1-.32,1l-1.89-.6a2.37,2.37,0,0,0-.5,1.2c0,1,.56,1.51,1.7,1.51h.5a11.8,11.8,0,0,0,.28,2,16.76,16.76,0,0,1,.18,3c0,.46.13,1.59.37,3.4a5,5,0,0,0-1.88,2.2l-1.34.55V165l.14.18a2.69,2.69,0,0,1,.55-.18l2.48.09a15.22,15.22,0,0,1,1.75.05,4.69,4.69,0,0,1,.87.46l.65-.92a7.77,7.77,0,0,0,.87.09l4.59-.14a4.61,4.61,0,0,1,.79.32,2.66,2.66,0,0,1,.87-1.15,5.24,5.24,0,0,1,1.93-.27h.46a11.15,11.15,0,0,0,3.26-.28l1.24-.55,1.84-.55a53.39,53.39,0,0,0,5-2.2l1.47-.42c1.65-.7,2.57-1.09,2.76-1.15l1,0L75.36,157a5.32,5.32,0,0,0,1.79-.56,3.17,3.17,0,0,0,.09-.55l1.24-.55A24.35,24.35,0,0,0,82.62,153c.95-.46,1.59-.8,1.93-1s1.73-1.41,4.54-3.77l2.58-2,1.33-2,2.25-2.11a4.54,4.54,0,0,0,.83-1.24,31.72,31.72,0,0,1,3-4s.18-.42.46-1.15c.12-.28.44-.92,1-1.93a6,6,0,0,0,.6-2.53,10.67,10.67,0,0,1,1-3,6.21,6.21,0,0,0,.78-2.67l0-2.11.41-2.48a16.32,16.32,0,0,1,.32-2.21c1.14-.24,1.7-1.08,1.7-2.52,0-.86-.56-1.55-1.7-2.07a23.6,23.6,0,0,0-.55-3.26l-.09-1.34a11,11,0,0,1-.55-1.93,8.19,8.19,0,0,1,.18-1.51,9.83,9.83,0,0,1-1.79-2.3c-.89-1.56-1.36-2.42-1.42-2.57a9.44,9.44,0,0,1-.19-1.29l-.5-.5a3.86,3.86,0,0,1-1.06-.1,4.28,4.28,0,0,1-1.65-1,3.76,3.76,0,0,0,.27-1.24,1.62,1.62,0,0,0-.41-.88,9.64,9.64,0,0,0-1.24-.09c-.09,0-.51.06-1.24.19h-.09a14.92,14.92,0,0,1-2.81-2.07l-2.11-1.24L87.07,92l-1.42-.69-3.26-1.7L81,89.17l-1.2-.41-2.34-.32-1.74-.51L72,87.33l-2.8-.59A36.25,36.25,0,0,1,65.3,86c-.1-.06-.4-.33-.92-.78a1.33,1.33,0,0,0-.69-.42,2.43,2.43,0,0,0-1.1.37,2,2,0,0,1-.88.28l-1.56-.23-1.88-.05-4.87-.32L49.45,85h-2.9a2.67,2.67,0,0,1-1.1-.23,9.6,9.6,0,0,0-1.38-.51,6.56,6.56,0,0,0-.74.28,5.84,5.84,0,0,1-1.14.23,2.79,2.79,0,0,0-.42,1l.14,1.65-.37,1.34a13.26,13.26,0,0,1-.5,2.57L40.21,91a2.41,2.41,0,0,0-.41,1.11.65.65,0,0,0,.18.46Z"/><path class="cls-2" d="M117.9,172.62c.12-.52.26-1,.41-1.52a12.23,12.23,0,0,1,.41-1.33,7.35,7.35,0,0,0,.78-2,2.5,2.5,0,0,0-.46-1,19,19,0,0,0,.92-4.5,4,4,0,0,1,.6-1.38.88.88,0,0,0,.14-.46,3.57,3.57,0,0,0-.55-1.19,1.53,1.53,0,0,1-.07-.65v-7.71c.12-.8.22-1.27.25-1.43s.31-.47.74-.69v-1.65a2.58,2.58,0,0,0,1-1.84,7.43,7.43,0,0,0,0-.78l.14-.09a2.31,2.31,0,0,1-.55-1.33l-.46-1.93.09-1.15,0-1.89a21.94,21.94,0,0,0,.46-2.57c0-.18-.1-.9-.32-2.16,0,0,.14-2.72.14-2.85,0-.3,0-.56,0-.78l.09-5a1.56,1.56,0,0,1,.14-.41,2.24,2.24,0,0,0,0-.37,8.89,8.89,0,0,0-.42-2.16,2.15,2.15,0,0,1-.09-.55c0-.28.26-.55.78-.83v-2.8c-.64-.31-1-.63-1-1,0-.7.11-2.08.32-4.13,0-.28,0-.51,0-.69s-.46-7.09-.46-7.31a5.12,5.12,0,0,1,1.84-4.18,3.86,3.86,0,0,0-.69-1.93l-1.43.19a4.19,4.19,0,0,1-.14-1c0-.06.19-1.13.56-3.21l-.28-.56a13.11,13.11,0,0,1-.32-3.81c0-.3,0-.92-.14-1.84L119.18,87h-.83l-.09-.5v0a.88.88,0,0,1,.23-.64,8.76,8.76,0,0,1,1.24-.78l1.24-.92.92-.32a10.3,10.3,0,0,1,2.07-.55l.46-1.24a6.22,6.22,0,0,0,3-.78,8,8,0,0,1,.42,1.7c0,.09,0,.36-.05.82,0,.31-.06.72-.09,1.24l-.23,7.4v3a3,3,0,0,0-.67.62,2.5,2.5,0,0,0-.16.9,16.45,16.45,0,0,1-.14,2.16l1.2.23c-.09.7-.14,1.18-.14,1.42a60.8,60.8,0,0,1-1.06,6.62l.74.73a24.51,24.51,0,0,1-.78,5.29c0,.24-.07,1-.1,2.2l1.11.28c-.25,2.05-.4,3.35-.46,3.9l.09,3.13a4.86,4.86,0,0,1-.23.92l-1,1,.46,2.34,1.1.14-.23.46v7.72l.32,1.75v2.52l0,1.79c0,.49-.61,1.14-1.84,1.93,0,.8.08,1.26.23,1.38,0,.12.29.39.87.78a3,3,0,0,0,.33,1.06,2.23,2.23,0,0,1,.36.78l0,.18a7,7,0,0,0-.09,1.89l.18,9.09-.92,1,1,.6v9.46a4.17,4.17,0,0,0-.74.14L125.25,171a11.54,11.54,0,0,1-2.16.51c-.55.34-1.11.66-1.66,1a3.84,3.84,0,0,1-2,.6A4.6,4.6,0,0,1,117.9,172.62Z"/><path class="cls-2" d="M234.83,157.77a14.88,14.88,0,0,1,1.29-2.43l.5-1.33c1.11-1.32,1.68-2,1.73-2.12a6.86,6.86,0,0,0,.2-1,3.3,3.3,0,0,1,.6-.05.85.85,0,0,1,.6.23,7.06,7.06,0,0,1,.78,1l.73,1.2L241,154.6l.32,1.24-.13,1.38a8.59,8.59,0,0,0,1.51,3.17l.92-.37h0a.58.58,0,0,1,.32.14,7,7,0,0,1,.87,2.3,2.86,2.86,0,0,0,1,1.38,37,37,0,0,0,3.31,2.57l5.83,2.3,1.65,1c1.11.15,1.77.26,2,.32l2.16,1c3.77.77,6,1.18,6.62,1.24l5,.19c.61,0,1.41,0,2.39,0a3,3,0,0,0,.92-.09l.59-.14,1.34.37a25.94,25.94,0,0,1,4.13-.78,8,8,0,0,1,1.52.51l.64,0c.31,0,.72-.38,1.24-1.15a.71.71,0,0,1,.6-.32,3.43,3.43,0,0,1,.69.09,4.27,4.27,0,0,0,.59.05c.1,0,1.2-.35,3.31-1.06l1.15-.09,1.75-.83a29.46,29.46,0,0,0,4.18-1.47l3.26-2.06c1.22-1.08,2-1.72,2.21-1.93s.79-1.08,1.83-2.58l1-.82.88-1.47a9.37,9.37,0,0,0,.87-1.2,4.11,4.11,0,0,0,.23-1q-.14-.42,1.38-2.67a3.75,3.75,0,0,0,.46-1.42,4.59,4.59,0,0,0,1.61-.32,2,2,0,0,0,.59-1.24l-.18-.19h-1l.6-1.93a2,2,0,0,1-.6-1.05,4.19,4.19,0,0,1,.6-1.25,10.45,10.45,0,0,0,.55-2.52,24,24,0,0,0,1-3.4c0-.8.09-1.63.18-2.48h1v-.69l-1.51.23a51,51,0,0,0-1.93-6.11l.73-.88-.18-.46c.76,0,1.33,0,1.7,0,2.23,0,3.35-.24,3.35-.73s-1.78-.94-5.33-1c-.27.61-.63.92-1.05.92a2.37,2.37,0,0,1-1-.6c-.21-.15-1.41-.69-3.58-1.61a8.26,8.26,0,0,0-1.89-1,27.57,27.57,0,0,0-3.72-.74l-1.05-.36c-1.6-.55-2.46-.83-2.58-.83h-.14v-.09l-.23-.14,0,.18c-.12.22-.2.33-.23.33l-3.58-.83L291,124c-1.32.18-2,.27-2.21.27a1.15,1.15,0,0,1-.68-.36,1,1,0,0,0-1.06-.92c-.28,0-.75.29-1.43.87a1.54,1.54,0,0,1-1,.28,11.85,11.85,0,0,1-1.33-.1l-1.15-.09c-2,0-3.08,0-3.08,0l-2.06-3.4c-.22-.37-.46-.55-.74-.55q-1.09,0-2.34,3.85c-.06-2.29-.38-3.75-1-4.36a1.66,1.66,0,0,0-.55-.37l-.64-.32c-2.3,3.31-3.52,5-3.68,5l-1.88-.64a12.1,12.1,0,0,1-3.22-.69c-.82-.43-1.25-.64-1.28-.64l-1.15-.14-.55-.09h-1.24l-1.2-.6a19.83,19.83,0,0,1-3.63-1.84,17.62,17.62,0,0,1-3.63-4.32,5.63,5.63,0,0,1-1-2.71,7.94,7.94,0,0,1,.14-1.28,3.39,3.39,0,0,1-.92-2.12,3.4,3.4,0,0,0,.83-1l.37-2.75a14.7,14.7,0,0,1,1.19-2.53L254.82,98l1.93-1.37,2.39-1.93,1.47-.69,1.6-.83,7.22-3.08a32.1,32.1,0,0,1,3.26-1.51c1.9-.65,3.38-1.11,4.45-1.38L283,85.6l1.65-.33,12.22-1.14,4.27.32,1.24.32A53,53,0,0,1,307.88,86l.37,1.7c-.74.55-1.23.91-1.47,1.06l-.87.64a8.48,8.48,0,0,1-1.24.83,5.17,5.17,0,0,0-1.38-.6h-1.43l-2.62-.87-1.65.09a7.52,7.52,0,0,1-1.29-1.47,3.58,3.58,0,0,0-3.07-1.42,3.91,3.91,0,0,0-2.67.78,5.28,5.28,0,0,0-1.19,1.79c-.4-.43-.69-.64-.88-.64h-.64a9.53,9.53,0,0,0-3.63.69l-4.27.78-3.82,1.24c-1.16-.28-1.79-.42-1.88-.42a5.94,5.94,0,0,0-1.79.51v1.1l-4.73,1.79-.46.88a6.51,6.51,0,0,0-4.37,2.39,3.64,3.64,0,0,0-1.19-.23c-.58,0-1.12.5-1.61,1.51a6.64,6.64,0,0,0-3.31,2.39,8.3,8.3,0,0,0-2,4.82,24.78,24.78,0,0,0,.32,3.22,3.38,3.38,0,0,0,1.2,2,12.89,12.89,0,0,0,3.53,2.62l2.16.59a4.68,4.68,0,0,1,3.08,2.85,1.63,1.63,0,0,0,.55.32,1.82,1.82,0,0,0,1,.28,5.48,5.48,0,0,0,1-.32,1.27,1.27,0,0,1,.37,0,5.42,5.42,0,0,1,.64,0,2.83,2.83,0,0,1,.37-1.34,4.17,4.17,0,0,0,.87.28l2.16-.28,3.5.74,1.14-.14a3,3,0,0,1,.46,0,16.07,16.07,0,0,1,3.31.59l.19,1.29a5.82,5.82,0,0,0,1.24.18c.12,0,.33,0,.64,0a1.42,1.42,0,0,1-.46-.83c0-.37.27-.55.83-.55l1.56.09h10.52a.92.92,0,0,1,.32.6,2.59,2.59,0,0,1-.27,1c.46.5.79.74,1,.74s.72-.38,1.24-1.15a2.66,2.66,0,0,0,1,.23,24.89,24.89,0,0,0,2.34-1l1,.27a13.73,13.73,0,0,1,3.86.83l1.7.87,5.7,1.84a6.1,6.1,0,0,1,.87.6c.46.3.83.53,1.1.69a9.39,9.39,0,0,1,2.44,1.7,3.66,3.66,0,0,1,.55,1.1,2.61,2.61,0,0,0-.42,1.19,4.08,4.08,0,0,0,.05.51l1.47.14a7.93,7.93,0,0,1,1.15,4.41,25.39,25.39,0,0,1,.69,3.86v4.31a4.78,4.78,0,0,1-.74,2.07.57.57,0,0,0-.09.32,5.07,5.07,0,0,0,.28,1.29,2.68,2.68,0,0,0-.69,1.06l-.09,1.1a17.42,17.42,0,0,1-1.8,3.49l0,1.29-1.2,1.74-.09.23a2.24,2.24,0,0,0-.09.42,2.65,2.65,0,0,0,.23,1,16.74,16.74,0,0,0-1.38,1.89,30.74,30.74,0,0,1-2.2,2.8l-1.57,2.3-1.05.91-1.84,1.93c-1.07,1.08-1.79,1.84-2.16,2.3a1,1,0,0,1-.69.46l-.87-.41.41-.6-2.39,1.52.32,1.24a48.34,48.34,0,0,1-6.06,3.35,22.2,22.2,0,0,1-4.32,1.75l-2.71.32a50.92,50.92,0,0,0-5.65,1.38l-2.8.41-1.24.23h-1.61l-1.89.14c-1-.31-1.63-.48-1.79-.51a13.91,13.91,0,0,0-1.61,0,2.77,2.77,0,0,1-1.88-.6,3,3,0,0,1-2.21,1.11,7.06,7.06,0,0,1-1.46-.69,1.27,1.27,0,0,0-.74-.19l-3,.05c-.22,0-.54,0-1-.05a2.17,2.17,0,0,0-2.06-1.6c-.46,0-.86.33-1.2,1-.55-.28-1.19-.57-1.93-.88a5.86,5.86,0,0,0-2.2-.41,17.78,17.78,0,0,0-2-.83c-.67-.15-1.29-.3-1.84-.46v-1.19c-.89-.22-1.36-.42-1.42-.6-.16,0-.35-.47-.6-1.33l-.78.18-.14,1.33a34.35,34.35,0,0,1-3.35-1l-5.51-4.46-.14,0a2,2,0,0,0-.21-.92,11.75,11.75,0,0,0-1-1,30.13,30.13,0,0,1-1.89-2.39A13.33,13.33,0,0,0,234.83,157.77Z"/><path class="cls-2" d="M26.88,197.07c-.15-.09-.23-.19-.23-.31a6.65,6.65,0,0,1,.18-.74,13.16,13.16,0,0,1,.37-1.46l.63,0a2.18,2.18,0,0,0-.2-.58.48.48,0,0,1-.05-.22,6.86,6.86,0,0,1,.37-1.19,4.14,4.14,0,0,1,.37-1.11l.49-.81a1.11,1.11,0,0,1,.26.06l.25.07a.54.54,0,0,0,.3-.16.46.46,0,0,0,.25-.09.55.55,0,0,0,.1-.23l-.35,0-.15-.53c0-.1.15-.29.44-.59a2.84,2.84,0,0,0,.24-.29,4,4,0,0,1,.26-.4,1.56,1.56,0,0,0,.36-.53l.1-.11a2.42,2.42,0,0,1,.43-.5l.6-.41.05,0,.41-.2,0-.34,1.9-1.52a2.81,2.81,0,0,1,.45-.27l.39-.26.37-.11a3.3,3.3,0,0,1,.65-.39,1.27,1.27,0,0,1,.43.14l.21-.54.6.12,0-.28.65-.21a3.79,3.79,0,0,1,1.06-.25l.45-.13a4.25,4.25,0,0,0,.57-.14,1.39,1.39,0,0,0,.36-.26h.35a2.94,2.94,0,0,0,.74-.19,1.51,1.51,0,0,1,.48-.07,1.54,1.54,0,0,1,.43.06.49.49,0,0,0,.21,0l2-.06a1.5,1.5,0,0,1,1,.54c.22.24.35.36.4.36s.34-.21.5-.62a1.63,1.63,0,0,0,.8.31l.2,0,.4-.09.47.17a18.82,18.82,0,0,1,2.51.75v.44h0l-.3.31c-.36.38-.6.58-.72.58a1.25,1.25,0,0,1-.49-.2c-.56-.22-1.2-.47-1.93-.73l-.19-.49-.38.09-.28.07a9.82,9.82,0,0,1-1-.31.76.76,0,0,1-.34-.21.86.86,0,0,1-.13-.2,2.48,2.48,0,0,1-.62.19h-2l-.37,0a4.57,4.57,0,0,0-1,.25l-.9.1-.9.18a2.12,2.12,0,0,0-.58.25l-.73.34-.53.37a5.06,5.06,0,0,0-2.17,1.41,3.67,3.67,0,0,0-.87.41.93.93,0,0,1-.06.34,3.25,3.25,0,0,0-.78.64l-.36.32a3.27,3.27,0,0,1-.57.68.45.45,0,0,1-.25.09l-.18,0a.67.67,0,0,1,.09.21s-.24.44-.72,1.22a8.58,8.58,0,0,0-.65.73c0,.06-.65,1.52-.65,1.52l-.13.42a5.71,5.71,0,0,0-.52,1.08c0,.16-.1.45-.19.88-.15.59-.23.9-.25,1s-.19.24-.49.3a.92.92,0,0,0,.34.63,2,2,0,0,0-.15.5,3.59,3.59,0,0,0,.12.82l0,.05a.21.21,0,0,1-.14.2l-1.16.44a.16.16,0,0,0-.13.16.3.3,0,0,0,.07.16,3.22,3.22,0,0,1,.28.5,1.28,1.28,0,0,0,.15.33l.66.54.25.68a1.65,1.65,0,0,1,.13.53h-.08l.08.5.21.06a1,1,0,0,1,.16.46h.05l.06.39a1.76,1.76,0,0,0,.13.55l.26.54a6.46,6.46,0,0,1,.42,1.26q0,.15-.3.15l.15.37a1.19,1.19,0,0,1,.46,0,1.22,1.22,0,0,1,.28.14l.56.69.44.4.34.43a7.08,7.08,0,0,1,.81.5.63.63,0,0,0,.24.52,2.54,2.54,0,0,0,.7.35l.67.4.5.24.46.23.48.19.34.25a1,1,0,0,1,.3.26.57.57,0,0,1,.39-.21l1.72.46H41a.45.45,0,0,1,.23.09,1.45,1.45,0,0,0,.43.16.86.86,0,0,0,.25-.19c.08-.07.13-.1.17-.1h.18l.1,0,1.2-.17a8.4,8.4,0,0,0,1.33-.29,3.72,3.72,0,0,0,.64.16,1.63,1.63,0,0,0,.74-.34l.7-.16a7.42,7.42,0,0,0,.84-.32l.34.07a5,5,0,0,0,1.25-.32l1.28-.45a1.82,1.82,0,0,0,.24-.28l.56-.28a1.66,1.66,0,0,1,.85-.26,1.86,1.86,0,0,1,.36.08c0-.25.05-.41.13-.47a2.34,2.34,0,0,1,.5-.25,3.5,3.5,0,0,1,.53-.28.78.78,0,0,1,.31.13,2.76,2.76,0,0,1-.31,1.21,1.64,1.64,0,0,0-.2.58.42.42,0,0,1-.18.22,7,7,0,0,1-1.24.27,4.86,4.86,0,0,1-.69.25l-.8.19-.65.13-.69.19-.62.09a6.48,6.48,0,0,1-1.06.28H47.3l-.6,0v.09c0,.19-.12.28-.36.28h-.12l-.29,0-.16,0-1.82.41a8,8,0,0,1-1.32.15l-1.18.06a.49.49,0,0,1-.37.22l-1.17,0a3.2,3.2,0,0,1-1-.27.93.93,0,0,0-.36-.06.54.54,0,0,0-.4.27l-.73,0c-.17-.28-.34-.41-.5-.41h-.59l-.26,0a3,3,0,0,1-1.4-.46c-.43-.23-.9-.46-1.42-.68-.82-.51-1.36-.83-1.62-.95l-.1-.27h.32v-.21c0-.32-.12-.5-.37-.53-.15.17-.27.25-.37.25a1.82,1.82,0,0,1-.51-.37l-1-.69-.31-.43-.14-.16-.52-.77a8.53,8.53,0,0,1-1.53-3.51l.29-.17v-.28l-.32-.22a1.53,1.53,0,0,0-.14-.64l-.08-.31a1.44,1.44,0,0,1-.18-.32,4.38,4.38,0,0,1,0-.56l0-.65.08-.3a2,2,0,0,1-.14-.56,1.11,1.11,0,0,1,.22-.65A2.51,2.51,0,0,0,26.88,197.07Z"/><path class="cls-2" d="M56.47,202.36a5.87,5.87,0,0,1,.12-1.41c.08-.26.22-.65.41-1.17l.7-1.27a3.17,3.17,0,0,1,.68-.51l.22-.44a.87.87,0,0,1,.22-.29,9.62,9.62,0,0,1,1.13-.6,2.45,2.45,0,0,0,.71-.56s.63-.27,1.77-.69a7.46,7.46,0,0,1,2.58-.34,4.38,4.38,0,0,1,.89.12l.06.31a1.33,1.33,0,0,1,.35.2.61.61,0,0,0,.35-.38,4,4,0,0,1,1.42.59,3.1,3.1,0,0,1,.52.35l.29.52a1.14,1.14,0,0,0,1,.47,4.53,4.53,0,0,1,.45.87,5,5,0,0,1,.19.94c.06.46.1.81.13,1.07h-.24v.17l-.29.34a.82.82,0,0,0,.41.47c0,.44-.06.73-.09.89a4.28,4.28,0,0,1-.22.51,15.43,15.43,0,0,1-.76,1.64A3.41,3.41,0,0,1,68,205.31l-.8.4-.75.35a4.38,4.38,0,0,1-.7.35c-.07,0-.54.05-1.43.1l-1,.22h-1l-.47.06q-1.29-.22-1.62-.24a1.11,1.11,0,0,0-.31-.28l-.58-.1a4.57,4.57,0,0,1-1.16-.64l-.53-.29-.12-.37a.61.61,0,0,0-.12-.22l-.31-.21s0,0-.1-.13a1.88,1.88,0,0,1-.32-1,.58.58,0,0,1,.31-.47,1,1,0,0,0-.46-.39Zm1.63-.29v.15l.13.13a.51.51,0,0,1,.29-.15c.08.34.15.59.21.77s.3.53.77,1.28a.22.22,0,0,1,0,.09,1.14,1.14,0,0,1-.15.43c0,.13.18.21.4.22a.4.4,0,0,1,.25-.15,11.77,11.77,0,0,1,1.3.62,2.32,2.32,0,0,0,1,.25h.87l.44.1a2,2,0,0,0,.49.08,3.24,3.24,0,0,0,.76-.11c.19-.05.46-.1.81-.17a6.74,6.74,0,0,0,1-.64,2.49,2.49,0,0,0,.65-.26c.07-.08.25-.37.56-.87l.37-.74a5.39,5.39,0,0,0,.42-.44.55.55,0,0,0,.06-.28,1,1,0,0,1-.22-.47v0l.06-.29a4,4,0,0,1,.18-1.11,6,6,0,0,1-.28-.89l-.24-.76a4.91,4.91,0,0,1,0-.61l-.06-.06h-.36a6.37,6.37,0,0,0-.66-.92l-.33-.41a1.93,1.93,0,0,0-.29-.14l-.74-.3c-.1-.34-.25-.51-.47-.51a1.93,1.93,0,0,0-.46.15l-.51-.12c-.51,0-.85,0-1,0a1.88,1.88,0,0,0-.76.34l-.31-.22a1.39,1.39,0,0,1-.34.35l-.63.32-.11.12-1.9,1.59a1.54,1.54,0,0,1-.09.52l-.29.52a2.8,2.8,0,0,1-.37.69,1.62,1.62,0,0,1,0,.21c0,.22-.17.41-.51.54a2.54,2.54,0,0,0,.11.34c.27.19.4.31.4.37S58.42,201.89,58.1,202.07Z"/><path class="cls-2" d="M74.08,196.54a1.18,1.18,0,0,1,.75-.8,2,2,0,0,1,1-.54c.22,0,.37.05.42.17a5,5,0,0,1,0,.86,2,2,0,0,0,.34.79c.39-.5.62-.74.69-.73l.52-.33a2,2,0,0,1,.75-.48c.13,0,.25.1.38.32a2.76,2.76,0,0,1,1.61-.59,1.11,1.11,0,0,1,.28,0l.3.09a3.69,3.69,0,0,1,.69-.2,4.71,4.71,0,0,1,.82.16,5.94,5.94,0,0,0,.74.12c.14.16.24.25.3.26l.34.06c.25,0,.55.32.9.83a4.89,4.89,0,0,1,.32,2.15,2.28,2.28,0,0,0-.72.13c-.25.09-.37.17-.37.25s.33.2,1,.55c.08,0,.11.14.11.29a2.7,2.7,0,0,1-.28.9.22.22,0,0,0,0,.09c0,.12.1.28.31.47a4,4,0,0,0,0,.54,3.69,3.69,0,0,0,.23.75l0,.81,0,.71,0,.62a1.8,1.8,0,0,0,.14.54,5.06,5.06,0,0,1-.56.39l-.66.27c-.08,0-.3.18-.65.42a1.17,1.17,0,0,1-.41-.72c0-.07.09-.46.26-1.16a2.85,2.85,0,0,0,0-.33c0-.09,0-.17,0-.22l.29-.11q.74-.1.75-.18l-.16-.1a3.52,3.52,0,0,0-1.1-.38,1.55,1.55,0,0,1,.22-.77l.44-.41a.91.91,0,0,0,.35-.62,4.06,4.06,0,0,0-1-.43l0-.53-.07-.78s0-.05,0-.12a2.69,2.69,0,0,0,.12-.43c-.15-.17-.23-.29-.23-.35v-.74a.73.73,0,0,0-.23-.4.71.71,0,0,1-.24-.5l-.07-.09a.93.93,0,0,1-.4-.16l-.42-.71a.32.32,0,0,0-.26-.19,1,1,0,0,0-.61.3,1.58,1.58,0,0,1-1,.47,5.45,5.45,0,0,1-.6-.12l-.28.28V197c-.21-.49-.42-.73-.62-.73l-.17.06a2.63,2.63,0,0,1-.45.16,3.26,3.26,0,0,0-.8.4,2.45,2.45,0,0,0-.84.6,1.25,1.25,0,0,0-.24.69l0,1c0,.17,0,.29-.11.34l-.67.48a.19.19,0,0,0-.1.15c0,.1.09.2.26.3a3.78,3.78,0,0,1,.68.39.44.44,0,0,1,.08.28s0,.13,0,.3l0,1.09a1.23,1.23,0,0,1-.27.44.34.34,0,0,0,0,.17.82.82,0,0,0,.31.55l0,.05c0,.23,0,.39,0,.47a5.29,5.29,0,0,0,.23,1.34c-.1.21-.19.33-.29.37a2.79,2.79,0,0,1-.49.09.63.63,0,0,0-.21.07l-.23.09c-.07,0-.14.08-.22.21a.38.38,0,0,1-.34.18q-.09,0-.27-.21a.34.34,0,0,1-.11-.25,1.32,1.32,0,0,1,0-.27,4.44,4.44,0,0,0,.11-.51v-1.12a3.49,3.49,0,0,0,.14-.51,1.34,1.34,0,0,0-.06-.35,2.21,2.21,0,0,1-.08-.4s0-.14,0-.29,0-.18,0-.25,0-.32,0-.56,0-.24,0-.36a1.46,1.46,0,0,1,.1-.48l.41-.2a.42.42,0,0,0-.1-.2,1.67,1.67,0,0,0-.47-.08c0-.18,0-.34,0-.45a2.56,2.56,0,0,1,.06-.44.9.9,0,0,0,0-.18,9.93,9.93,0,0,0-.16-1.26l.33-.19c-.18-.27-.29-.43-.31-.48a1.49,1.49,0,0,1,0-.34A1.3,1.3,0,0,0,74.08,196.54Z"/><path class="cls-2" d="M96.84,200.9l-.39.28a3.41,3.41,0,0,0-.91-.16,9.1,9.1,0,0,0-1,.06,1.26,1.26,0,0,0-.44-.52l-.28.37a6.19,6.19,0,0,0-.74.17,2,2,0,0,1-.31,0l-.09,0-.56-.11,0,0-.28-.29a1.22,1.22,0,0,1-.4.1,1.6,1.6,0,0,1-.37-.15l-.26-.1c-.76-.27-1.14-.7-1.14-1.3a2.51,2.51,0,0,1,.6-1.55,6.16,6.16,0,0,1,.83-.78l.29-.28.7-.41a12.82,12.82,0,0,1,1.56-.86,5.3,5.3,0,0,1,1.84-.47,12.58,12.58,0,0,1,1.33.31l.77-.13a3.67,3.67,0,0,1,.84.1c.2.1.29.2.29.29a.42.42,0,0,1-.14.3l-.73.44a3.81,3.81,0,0,1-.79.43,5.25,5.25,0,0,1-1.4-.13,2.06,2.06,0,0,0-.31-.5h-.09l-.28.29-.37,0-.25,0h-.24l-.38.09a.78.78,0,0,0-.44-.09,10.58,10.58,0,0,1-1,.59,1.73,1.73,0,0,0-.61.57,1.35,1.35,0,0,0-.26.72c0,.11.1.25.28.42a3,3,0,0,0,.52.23,5,5,0,0,1,.58.33,1.76,1.76,0,0,0,0,.19c0,.2.08.31.25.31s.34-.13.53-.39a4.69,4.69,0,0,0,.58.05l.84-.13.47,0,.71-.09a4.63,4.63,0,0,1,.75.21l.53-.06.53.37a3.73,3.73,0,0,1,1.17.75,1.25,1.25,0,0,1,.26.47l.11.49a9.9,9.9,0,0,1,.2,1q0,.09-.06.51c-.05.63-.23,1-.54,1a1.55,1.55,0,0,1-.34-.05,2.28,2.28,0,0,1-.3.84c-.44.51-.72.86-.85,1a2.65,2.65,0,0,0-1.24.45,1.51,1.51,0,0,1-.27.19l-.37,0-1.19.32c-.39-.07-.61-.1-.65-.1a7.54,7.54,0,0,0-.88.24l-.36,0a8.09,8.09,0,0,1-1.06-.12,2.05,2.05,0,0,1-.81-.28l-.47-.31a6,6,0,0,1-1.08-.76,1.6,1.6,0,0,1-.44-1c0-.06.11-.18.32-.35l.4-.37a2.87,2.87,0,0,1,.65-.41.13.13,0,0,1,.1,0,1,1,0,0,1,.34.71l-.06.47v0a.21.21,0,0,0,.08.2,3.84,3.84,0,0,0,.53.33,1.51,1.51,0,0,1,.26.19c.25.22.39.32.39.32l.54.23.5.26h.56l.36.07a4.31,4.31,0,0,1,1-.17,1.45,1.45,0,0,0,.61-.12l.57-.28a2.92,2.92,0,0,0,.55-.22,4.11,4.11,0,0,0,.73-1,3.38,3.38,0,0,0,.48-1.79.7.7,0,0,0-.14-.41A11.89,11.89,0,0,1,96.84,200.9Z"/><path class="cls-2" d="M102.32,196.08c.08-.38.21-.57.4-.57l.77,0,.94-.13v-.36c0-.92,0-1.68-.06-2.27a2.18,2.18,0,0,0-.17-.69l-.15-.31a.54.54,0,0,1-.06-.25.82.82,0,0,1,.35-.53,2.79,2.79,0,0,1,1.39-.67c.13-.26.26-.39.41-.39a.18.18,0,0,1,.15.07.81.81,0,0,1,.21.58s0,.78-.14,2.32a6.67,6.67,0,0,1-.22.71.9.9,0,0,1-.34.43,1.9,1.9,0,0,0,.09.58h.34l-.09.75a10,10,0,0,1,1.54.35,3.72,3.72,0,0,0,.5,0,3.65,3.65,0,0,0,.87-.18l1-.09a4,4,0,0,1,.89-.29,3.06,3.06,0,0,1,.47,0,2.61,2.61,0,0,1-.09.59q-.06.22-.93.75a1.16,1.16,0,0,0-.3.22,3.18,3.18,0,0,1-.23.27.65.65,0,0,1-.35.06.69.69,0,0,1-.33-.06l-.6-.33-.37-.08-.45-.33-.75.58-.65-.09a.76.76,0,0,0-.29.15,7.33,7.33,0,0,1,.12,1.19c0,.16,0,.39,0,.69q-.54.09-.54.45a1.16,1.16,0,0,0,.06.32,3.36,3.36,0,0,1,.54.09l0,1.84a1.48,1.48,0,0,0-.37-.06c-.17,0-.26.08-.26.22a.91.91,0,0,0,.13.43A.69.69,0,0,1,106,202c.15,0,.23.09.23.28l0,.62c0,.4,0,.69,0,.87a1.5,1.5,0,0,0,.17.56l.18.31a.42.42,0,0,1,0,.18,2.35,2.35,0,0,1,0,.33,1.94,1.94,0,0,0,1,.27,2.05,2.05,0,0,0,.94-.24A2.83,2.83,0,0,0,109,205l.81-.74a2.44,2.44,0,0,1,.74-.5.82.82,0,0,1,.37.13l-.06.39a3,3,0,0,1-.2.89,2.77,2.77,0,0,1-.9.37,15.21,15.21,0,0,1-1.83.73l-.5.16a2.59,2.59,0,0,1-.58.28c-.09,0-.19-.09-.29-.27l-.27-.07-.16.37-.36,0a1.49,1.49,0,0,1-.91-.5,2.09,2.09,0,0,1-.38-.49,3.52,3.52,0,0,1-.12-.38,3.34,3.34,0,0,1-.16-.56c0-.09,0-.23,0-.43s0-.49,0-1a1,1,0,0,1,.26-.74,2.17,2.17,0,0,1-.09-.67c-.05-.46-.08-1.32-.09-2.59.24-.14.36-.29.36-.42a1.49,1.49,0,0,0,0-.28l-.43-.11,0-.13h0a2.26,2.26,0,0,1,0-.31,7.87,7.87,0,0,0,.08-1.33,4.38,4.38,0,0,0-.88-.13l-.77.08-.31,0-.44.14a.18.18,0,0,1-.21-.2C101.7,196.52,101.91,196.31,102.32,196.08Z"/><path class="cls-2" d="M113.41,196.4a1.47,1.47,0,0,1,.28-.48,3.08,3.08,0,0,1,.77-.46,3.63,3.63,0,0,1,.72-.4.47.47,0,0,1,.4.19l.06.26.12.45a1.08,1.08,0,0,0-.05.25.51.51,0,0,0,.17.31,4.25,4.25,0,0,0,.79-.37l.62-.2.62-.42.4-.16.35-.16.33.06h0a9.33,9.33,0,0,0,1-.31,2.07,2.07,0,0,1,.45,0,.63.63,0,0,1,.35.07l.31.3.21,0,.42-.2.08,0a.76.76,0,0,1,.44.22,1.19,1.19,0,0,1,.34.64,8.12,8.12,0,0,1-.89.69c-.21.28-.37.41-.47.41s-.36-.15-.62-.47l-.44,0a1.93,1.93,0,0,1-.63-.18,3.68,3.68,0,0,0-.73-.17.56.56,0,0,1-.48.32,3.46,3.46,0,0,0-.52.06l-.59.18a.62.62,0,0,1-.23-.11c-.2.18-.55.45-1,.8a1.36,1.36,0,0,0-.45,1.19v.52c0,.18,0,.33,0,.44s-.11.27-.34.49a.73.73,0,0,1,.25.46,1.29,1.29,0,0,1,0,.25l.22.06,0,.44.07,2.64-.06.16-.38.21a2.6,2.6,0,0,0-.83.22,3.07,3.07,0,0,0,.93.19l.25-.06a2.86,2.86,0,0,1,.15.67.59.59,0,0,1-.34.53,2.58,2.58,0,0,1-.75.14,3.89,3.89,0,0,0-.63.37.37.37,0,0,1-.21.06c-.24,0-.35-.1-.35-.31a6.28,6.28,0,0,1,.22-.84.57.57,0,0,0,0-.18l-.08-.66a1.48,1.48,0,0,1,.06-.25l.36-.1c0-.09,0-.17,0-.24a.76.76,0,0,0-.22-.46v-.37q0-.12-.09-.69c0-.32,0-.6,0-.82.37-.13.55-.29.55-.48a.79.79,0,0,0,0-.23,1.24,1.24,0,0,1-.3,0,.43.43,0,0,1-.25-.12v-1.47c0-.08,0-.17,0-.27v-.23a1.57,1.57,0,0,1,.19-.64.57.57,0,0,1-.22-.28s0-.34-.06-.95A1.34,1.34,0,0,0,113.41,196.4Z"/><path class="cls-2" d="M126.17,200.18l-.44.25c.06.26.09.42.11.5a1.52,1.52,0,0,1,0,.19,2,2,0,0,1-.07.39,6.12,6.12,0,0,0-.07,1.15,1.54,1.54,0,0,0,.19.51l0,.49,0,.58a1.24,1.24,0,0,0,.53,1.07,9.66,9.66,0,0,0,1.49.5,3,3,0,0,0,.78.15,1.54,1.54,0,0,0,1-.2l.61-.58a1.13,1.13,0,0,1,.37-.21.71.71,0,0,0,.44.21.65.65,0,0,0,.19,0,1.76,1.76,0,0,1,.25-.41l.41-.25a8.71,8.71,0,0,0,.55-.8,4.89,4.89,0,0,0,.46-.39,3.64,3.64,0,0,0,.23-.59,2.46,2.46,0,0,0,.15-.62v0c0-.21,0-.35,0-.43v0a3,3,0,0,1,.12-.51l-.24-.14-.09-.2v-2.14a7.44,7.44,0,0,0-.14-1.18v-.08a.8.8,0,0,1,.29-.47c0-.12-.07-.18-.12-.2l-.19-.08s0-.16,0-.41a1.12,1.12,0,0,1,0-.19,5.34,5.34,0,0,0,.09-.53,1.5,1.5,0,0,0,.34.08,3.9,3.9,0,0,0,.87-.31,4.6,4.6,0,0,1,.59-.19,3.57,3.57,0,0,1,.23,1l-.1,1.67v1a12.55,12.55,0,0,1-.19,1.39l-.3-.11a1.36,1.36,0,0,0-.15.48c0,.06,0,.13,0,.22l.47,0a2.51,2.51,0,0,1,0,.4v1.23a4.69,4.69,0,0,1-.13,1.09,1.41,1.41,0,0,1,.25.31,5.87,5.87,0,0,1,.06.73,1.2,1.2,0,0,0,.17.62,1.08,1.08,0,0,0,.42.28.8.8,0,0,1-.24.34l-.8.34a2.87,2.87,0,0,1-.81.4.38.38,0,0,1-.28-.16,1.11,1.11,0,0,1-.19-.65c0-.12,0-.27,0-.44a2.41,2.41,0,0,0-.49-.06.52.52,0,0,0-.21,0l-.38.36-.29.13-.49.28L131,206a4.83,4.83,0,0,1-2,.5,4.08,4.08,0,0,1-.62.15,2.56,2.56,0,0,1-.58-.19l-.09,0a1.57,1.57,0,0,0-.53.21l-.43-.52h0l-.62.19a.64.64,0,0,1-.2,0,2.76,2.76,0,0,1-.9-.38,1.48,1.48,0,0,1-.53-.55,2.09,2.09,0,0,1-.31-1,.87.87,0,0,1,.2-.41l-.32-.15v-1.68a.78.78,0,0,0,.29-.49,2.41,2.41,0,0,0-.22-.48v-1l0-.72a.69.69,0,0,1,.25-.41v-.21l-.37.12q.09-.84.09-1.23c0-.15,0-.3,0-.44l0-.32a1.6,1.6,0,0,0-.06-.5l-.17-.42c0-.1.17-.19.45-.28l1.13-.4a1.11,1.11,0,0,1,.37-.19.41.41,0,0,1,.27.1,3.34,3.34,0,0,1,.22.58,2.9,2.9,0,0,1-.12.34,3.86,3.86,0,0,0-.12,1.15,5.06,5.06,0,0,0,.09.66,5.65,5.65,0,0,0-.25,1A2.88,2.88,0,0,0,126.17,200.18Z"/><path class="cls-2" d="M139.06,200.39a12.78,12.78,0,0,0,.66-1.32c.2-.41.34-.62.41-.64l.54-.46.33-.39.49-.41.65-.62.37-.22.34-.25.32-.13.43-.33.78-.28c.48-.16.78-.26.9-.28l.62-.08a1,1,0,0,0,.43.3l.74-.2.1,0,.65.17.25,0,.38.05a6.53,6.53,0,0,1,.77-.21.89.89,0,0,1,.54.19.83.83,0,0,1-.2.49,1.16,1.16,0,0,1-.49.24l-.09.39a3.05,3.05,0,0,0-.62.36.83.83,0,0,1-.26.15l-.22,0-.61,0-.43-.06-.35,0a3.74,3.74,0,0,0-.84-.19l-.32,0-.45,0c-.08,0-.44.06-1.09.18a2.85,2.85,0,0,0-.68.13,5.4,5.4,0,0,0-.63.58.89.89,0,0,1-.52.19.71.71,0,0,1-.16.44,1.15,1.15,0,0,1-.53.18,1.59,1.59,0,0,1,0,.29,3.55,3.55,0,0,1-.4.64,6.35,6.35,0,0,0-.12,1.8,4.86,4.86,0,0,0,.37,1.31.41.41,0,1,0,.25.78,6.88,6.88,0,0,1,.83,1.21l.35,0a2.61,2.61,0,0,0,.3.36l.56.37.4.29a6,6,0,0,0,.69.25,4.49,4.49,0,0,0,.68.06l.54.12.52,0,.38,0a3.64,3.64,0,0,0,1-.34l.26.08a1.64,1.64,0,0,0,.25-.17,3.92,3.92,0,0,0,.56-.39,1.25,1.25,0,0,0,.68-.31,2.38,2.38,0,0,1,.5-.4,1.19,1.19,0,0,0,.25-.22c.24-.28.41-.42.52-.42a.33.33,0,0,1,.24.15,4.47,4.47,0,0,0-.15,1,3,3,0,0,0-.49.59,3.55,3.55,0,0,0-.88.49,1.08,1.08,0,0,0-.43.17.9.9,0,0,1-.47.19l-.52,0c-.52.1-.83.17-.93.2a4.28,4.28,0,0,0-.4.27.24.24,0,0,1-.13,0H145l-.43,0a1.38,1.38,0,0,0-.66-.26,7.58,7.58,0,0,1-1.19-.27l-.36,0-.41-.14-.5-.12a.72.72,0,0,1-.22-.17c-.52-.5-.77-.8-.77-.89a1.1,1.1,0,0,1,0-.28v0l-.5.09,0,0a4.52,4.52,0,0,0-.39-.7,1.25,1.25,0,0,1-.25-.54c0-.06,0-.24-.06-.53v0l.08-.41c-.28-.19-.41-.33-.41-.41a3.28,3.28,0,0,1,.69-.44.73.73,0,0,0,.38-.67C140,200.65,139.69,200.47,139.06,200.39Z"/><path class="cls-2" d="M152.89,196.08c.08-.38.21-.57.4-.57l.77,0,.94-.13v-.36c0-.92,0-1.68-.06-2.27a2,2,0,0,0-.18-.69l-.14-.31a.54.54,0,0,1-.06-.25.82.82,0,0,1,.35-.53,2.75,2.75,0,0,1,1.39-.67c.13-.26.26-.39.41-.39a.18.18,0,0,1,.15.07.8.8,0,0,1,.2.58s0,.78-.13,2.32c-.12.41-.19.64-.22.71a.9.9,0,0,1-.34.43,1.9,1.9,0,0,0,.09.58h.34l-.09.75a9.69,9.69,0,0,1,1.53.35,3.93,3.93,0,0,0,.51,0,3.65,3.65,0,0,0,.87-.18l1-.09a4.22,4.22,0,0,1,.88-.29,3.08,3.08,0,0,1,.48,0,2.61,2.61,0,0,1-.09.59q-.06.22-.93.75a1.16,1.16,0,0,0-.3.22,3.18,3.18,0,0,1-.23.27,1,1,0,0,1-.68,0l-.61-.33-.36-.08-.45-.33-.75.58-.65-.09a.7.7,0,0,0-.29.15,7.33,7.33,0,0,1,.12,1.19c0,.16,0,.39,0,.69q-.54.09-.54.45a1.09,1.09,0,0,0,.05.32,3.32,3.32,0,0,1,.55.09l0,1.84a1.48,1.48,0,0,0-.37-.06c-.18,0-.26.08-.26.22a.91.91,0,0,0,.13.43.66.66,0,0,1,.35-.13c.15,0,.22.09.22.28l0,.62c0,.4,0,.69,0,.87a1.53,1.53,0,0,0,.18.56l.18.31a.42.42,0,0,1,0,.18,2.35,2.35,0,0,1,0,.33,1.94,1.94,0,0,0,1,.27,2.08,2.08,0,0,0,.94-.24,3.71,3.71,0,0,0,.41-.23l.81-.74a2.44,2.44,0,0,1,.74-.5.82.82,0,0,1,.37.13l-.06.39a2.59,2.59,0,0,1-.21.89,2.65,2.65,0,0,1-.9.37,14.29,14.29,0,0,1-1.82.73l-.51.16a2.42,2.42,0,0,1-.57.28q-.13,0-.3-.27l-.26-.07-.16.37-.36,0a1.49,1.49,0,0,1-.91-.5,2.47,2.47,0,0,1-.39-.49s0-.14-.11-.38a4.07,4.07,0,0,1-.17-.56c0-.09,0-.23,0-.43s0-.49,0-1a1.06,1.06,0,0,1,.27-.74A2.17,2.17,0,0,1,155,202c-.05-.46-.08-1.32-.09-2.59.24-.14.36-.29.36-.42a1.49,1.49,0,0,0,0-.28l-.43-.11,0-.13h0a1.81,1.81,0,0,1,0-.31,6.7,6.7,0,0,0,.09-1.33,4.47,4.47,0,0,0-.88-.13l-.77.08-.31,0-.44.14a.18.18,0,0,1-.21-.2C152.27,196.52,152.48,196.31,152.89,196.08Z"/><path class="cls-2" d="M164,196.39c0-.14.15-.32.44-.56a6.23,6.23,0,0,1,1.68-1l.45.46a4.49,4.49,0,0,0-.24,1,6.49,6.49,0,0,0-.09.66v.55l-.25.36a1,1,0,0,0,.33.7.81.81,0,0,0-.09.19l0,.73,0,.16a2.93,2.93,0,0,0,0,.34l-.08,2.81a9.51,9.51,0,0,0,.2,1l0,.62c0,.3.08.47.08.52a.75.75,0,0,1-.26.56,4.92,4.92,0,0,1-.56.38,9.56,9.56,0,0,1-.84.62.74.74,0,0,1-.27.06.5.5,0,0,1-.35-.18c0-.24.06-.4.07-.48a4.39,4.39,0,0,1,.16-.65l0-.73.1-1.44v-.27a.22.22,0,0,1,.23-.23h.15a1.15,1.15,0,0,0,.07-.32,2.89,2.89,0,0,0-.08-.46,3.36,3.36,0,0,1-.09-.41l-.25-.19a3.74,3.74,0,0,0,0-.49,2,2,0,0,0,0-.22v-.21a.83.83,0,0,1,.14-.43.53.53,0,0,1-.14-.36v-.23l0-.33c.64-.12,1-.22,1-.31a.15.15,0,0,0,0-.05.8.8,0,0,0-.55-.19l-.58,0a2.19,2.19,0,0,0,0-.3s0-.5-.12-1.46C164.25,196.6,164.16,196.49,164,196.39Zm.27-5.94v0c0-.34.23-.72.75-1.12a2.26,2.26,0,0,0,.38-.38l.3-.24a5,5,0,0,1,.68-.9.72.72,0,0,1,.36-.16,1,1,0,0,1,.34.22.61.61,0,0,1,.28.5.52.52,0,0,1-.26.42,11.81,11.81,0,0,0-1.3,1.06l-.41.26-.52.36a2,2,0,0,1-.47.22C164.29,190.67,164.25,190.6,164.25,190.45Z"/><path class="cls-2" d="M170,202.36a5.87,5.87,0,0,1,.12-1.41c.07-.26.21-.65.41-1.17.4-.74.63-1.17.69-1.27a3.49,3.49,0,0,1,.68-.51l.22-.44a.87.87,0,0,1,.22-.29,10.21,10.21,0,0,1,1.14-.6,2.75,2.75,0,0,0,.71-.56s.62-.27,1.77-.69a7.46,7.46,0,0,1,2.58-.34,4.3,4.3,0,0,1,.88.12l.06.31a1.07,1.07,0,0,1,.35.2.64.64,0,0,0,.36-.38,3.9,3.9,0,0,1,1.41.59,2.68,2.68,0,0,1,.52.35s.12.2.29.52a1.16,1.16,0,0,0,1,.47,6.14,6.14,0,0,1,.45.87,6.26,6.26,0,0,1,.18.94c.06.46.1.81.13,1.07H184v.17l-.3.34a.8.8,0,0,0,.42.47c0,.44-.06.73-.09.89a4.28,4.28,0,0,1-.22.51,14.76,14.76,0,0,1-.77,1.64,3.35,3.35,0,0,1-1.43,1.15l-.8.4-.75.35a4.06,4.06,0,0,1-.69.35c-.07,0-.55.05-1.43.1l-1,.22h-1.05l-.47.06c-.87-.15-1.41-.23-1.63-.24a1,1,0,0,0-.31-.28l-.57-.1a4.4,4.4,0,0,1-1.17-.64l-.53-.29c-.06-.18-.09-.3-.11-.37a.61.61,0,0,0-.12-.22s-.12-.07-.31-.21c0,0-.05,0-.11-.13a2,2,0,0,1-.32-1,.58.58,0,0,1,.31-.47,1,1,0,0,0-.46-.39Zm1.62-.29v.15l.13.13a.53.53,0,0,1,.3-.15c.08.34.15.59.2.77s.31.53.77,1.28a.2.2,0,0,1,0,.09,1.14,1.14,0,0,1-.15.43c0,.13.17.21.4.22a.4.4,0,0,1,.25-.15,11.22,11.22,0,0,1,1.29.62,2.38,2.38,0,0,0,1,.25h.87l.44.1a2,2,0,0,0,.49.08,3.31,3.31,0,0,0,.77-.11c.19-.05.45-.1.81-.17a6.94,6.94,0,0,0,1-.64,2.49,2.49,0,0,0,.65-.26,9.27,9.27,0,0,0,.56-.87l.37-.74a4.6,4.6,0,0,0,.43-.44.55.55,0,0,0,.06-.28,1,1,0,0,1-.22-.47v0l0-.29a4,4,0,0,1,.18-1.11,7.52,7.52,0,0,1-.28-.89l-.24-.76c0-.1,0-.3,0-.61l-.06-.06h-.35a6.66,6.66,0,0,0-.67-.92,4,4,0,0,0-.33-.41,1.49,1.49,0,0,0-.29-.14l-.73-.3c-.1-.34-.26-.51-.47-.51a1.8,1.8,0,0,0-.46.15l-.52-.12c-.51,0-.84,0-1,0a1.9,1.9,0,0,0-.77.34l-.31-.22a1.24,1.24,0,0,1-.34.35l-.63.32-.1.12-1.91,1.59a2,2,0,0,1-.08.52l-.3.52a2.51,2.51,0,0,1-.37.69,1.83,1.83,0,0,1,0,.21c0,.22-.18.41-.52.54a2,2,0,0,0,.12.34c.26.19.4.31.4.37S171.94,201.89,171.62,202.07Z"/><path class="cls-2" d="M187.61,196.54a1.16,1.16,0,0,1,.75-.8,2,2,0,0,1,1-.54c.23,0,.37.05.43.17a5.9,5.9,0,0,1,0,.86,2.23,2.23,0,0,0,.34.79c.39-.5.63-.74.7-.73l.51-.33a2.07,2.07,0,0,1,.75-.48c.13,0,.26.1.39.32a2.73,2.73,0,0,1,1.6-.59,1,1,0,0,1,.28,0l.3.09a3.69,3.69,0,0,1,.69-.2,4.75,4.75,0,0,1,.83.16,5.4,5.4,0,0,0,.74.12c.13.16.23.25.29.26l.34.06c.26,0,.55.32.9.83a4.74,4.74,0,0,1,.32,2.15,2.38,2.38,0,0,0-.72.13c-.24.09-.37.17-.37.25s.33.2,1,.55c.08,0,.12.14.12.29a3,3,0,0,1-.28.9.2.2,0,0,0,0,.09c0,.12.11.28.31.47a3.81,3.81,0,0,0,0,.54,3.37,3.37,0,0,0,.22.75l0,.81,0,.71,0,.62a1.94,1.94,0,0,0,.15.54c-.27.2-.46.33-.56.39s-.27.12-.67.27c-.08,0-.29.18-.65.42a1.22,1.22,0,0,1-.41-.72c0-.07.09-.46.27-1.16a2.85,2.85,0,0,0,0-.33,1.94,1.94,0,0,0,0-.22l.3-.11q.73-.1.75-.18l-.16-.1a3.7,3.7,0,0,0-1.11-.38,1.67,1.67,0,0,1,.22-.77l.44-.41a.93.93,0,0,0,.36-.62,4.31,4.31,0,0,0-1-.43l.05-.53-.07-.78a.67.67,0,0,1,0-.12,2.69,2.69,0,0,0,.12-.43c-.16-.17-.24-.29-.24-.35l0-.74a.7.7,0,0,0-.24-.4.71.71,0,0,1-.24-.5l-.07-.09a.93.93,0,0,1-.4-.16l-.41-.71a.35.35,0,0,0-.27-.19,1,1,0,0,0-.6.3,1.6,1.6,0,0,1-1,.47,5.39,5.39,0,0,1-.61-.12l-.28.28V197c-.21-.49-.41-.73-.62-.73l-.16.06a2.75,2.75,0,0,1-.46.16,3.23,3.23,0,0,0-.79.4,2.42,2.42,0,0,0-.85.6,1.32,1.32,0,0,0-.23.69l0,1c0,.17,0,.29-.12.34L189,200c-.07.05-.11.1-.11.15s.09.2.27.3a4.25,4.25,0,0,1,.68.39.45.45,0,0,1,.07.28s0,.13,0,.3l0,1.09a1.3,1.3,0,0,1-.26.44.34.34,0,0,0,0,.17.79.79,0,0,0,.31.55l-.05.05c0,.23,0,.39,0,.47a4.82,4.82,0,0,0,.24,1.34.7.7,0,0,1-.3.37,2.8,2.8,0,0,1-.48.09.63.63,0,0,0-.21.07l-.24.09c-.07,0-.14.08-.22.21a.38.38,0,0,1-.34.18c-.06,0-.14-.07-.26-.21a.35.35,0,0,1-.12-.25,1.39,1.39,0,0,1,0-.27,3.49,3.49,0,0,0,.1-.51l0-1.12a2.88,2.88,0,0,0,.13-.51,1.34,1.34,0,0,0-.06-.35,1.92,1.92,0,0,1-.07-.4s0-.14,0-.29a2.36,2.36,0,0,0,0-.25c0-.13,0-.32,0-.56s0-.24,0-.36a1.78,1.78,0,0,1,.1-.48l.42-.2a.43.43,0,0,0-.11-.2,1.52,1.52,0,0,0-.47-.08c0-.18,0-.34,0-.45a2.56,2.56,0,0,1,.06-.44,1,1,0,0,0,0-.18,8.32,8.32,0,0,0-.16-1.26l.34-.19a4,4,0,0,1-.31-.48,1.27,1.27,0,0,1-.06-.34A1.34,1.34,0,0,0,187.61,196.54Z"/><path class="cls-2" d="M176.38,218.87a.43.43,0,0,1,.12-.11l.21-.17a.25.25,0,0,1,0-.08s0,0,0,0l.31-.41a1,1,0,0,1,.19-.2l-.38-.09.39-.25-.39-.37,0-.29a.93.93,0,0,0,.07-.24v-.14a.12.12,0,0,1,.08-.12l.05,0h.09a.11.11,0,0,0,0-.05s0-.07-.11-.13V216l-.13,0,0,0a.49.49,0,0,0,0-.13l0-.21,0-.4s0-.09,0-.22a.54.54,0,0,0,0-.2H177a.53.53,0,0,1,.06-.23q-.15,0-.15-.09a.24.24,0,0,1,0-.1s0-.09,0-.19V214a.19.19,0,0,0,0-.08l0-.07a.15.15,0,0,1,0-.06H177l0-.08-.07,0v0a.23.23,0,0,1,0-.11l.06-.08.06,0v-.06l-.1,0,0-.13a.19.19,0,0,1-.11,0s-.06,0-.06-.1V213l0-.36v-.39a1,1,0,0,1,0-.26l-.06-.06v-.39l0,0a.5.5,0,0,0,0-.11.46.46,0,0,1-.06-.16v0a.24.24,0,0,1-.07-.1v-.18c0-.09,0-.14,0-.17a.33.33,0,0,0-.07-.15l-.08,0,0-.13.13-.07a.46.46,0,0,1,.22-.06l.16-.08.08-.07.05,0a1.12,1.12,0,0,1,.35-.1c.07,0,.1,0,.1.09v.14l0,.11a.27.27,0,0,0-.06.14.66.66,0,0,0,0,.13,2.27,2.27,0,0,0,0,.24h0v0a.18.18,0,0,1-.09,0h-.08l0,0a.15.15,0,0,1-.1.13l.1.16.11,0,.07.12h.06a1.31,1.31,0,0,1-.21.25l-.06.3-.21.24.06.17,0,.6s.06.05.16.09.13.08.13.12,0,.05,0,.08h-.07a.46.46,0,0,1,.11.34c0,.06-.05.12-.14.17a.46.46,0,0,0,.07.13.43.43,0,0,1,.07.21,1,1,0,0,0,0,.15v.11c0,.26,0,.43,0,.52v.11a1.93,1.93,0,0,0,0,.24v.07a.11.11,0,0,1,0,0v0l-.09.07a.35.35,0,0,0,.12.24l0,0s0,.78,0,.8,0,.15-.07.36l0,.24,0,.06a.41.41,0,0,0,0,.09,1,1,0,0,0,0,.21h.1a.79.79,0,0,1,0,.15v.71a.12.12,0,0,0,.1.12.33.33,0,0,1,.13.07h.08l.15,0h.17l.31.07h.27l.14.21.38-.19.16,0,.12,0,.12,0,.17,0h0l.2,0,.23,0,.23,0h.11l.2,0,.23,0c.14,0,.29,0,.45-.06a.41.41,0,0,0,.14,0,.18.18,0,0,1,.09,0s.05.07.13.21h0s.09,0,.13-.12a.51.51,0,0,0,0-.21l.21-.06a1.16,1.16,0,0,1,.34-.13h0a.75.75,0,0,1,0,.17l-.08.1-.16.23-.15.16h-.11l0,.09-.28-.21-.61.22h0a1,1,0,0,0-.31,0l-.75.05-.3,0-.17,0a.25.25,0,0,1-.18-.08l-.16-.14-.47.18-.11,0h-.23l-.36,0,0,0H178l0,.09-.12-.07-.15,0a.52.52,0,0,1-.33.12l-.25,0a.45.45,0,0,1-.25.07l-.15,0A2.21,2.21,0,0,1,176.38,218.87Z"/><path class="cls-2" d="M183.31,218.87a.29.29,0,0,1,.11-.11l.21-.17s0-.06,0-.08,0,0,0,0l.31-.41a1.48,1.48,0,0,1,.19-.2l-.38-.09.39-.25-.38-.37v-.29a.64.64,0,0,0,.07-.24v-.14a.14.14,0,0,1,.09-.12l0,0h.09a.17.17,0,0,0,0-.05s0-.07-.11-.13V216l-.13,0,0,0a.87.87,0,0,0,0-.13v-.21l0-.4a1.45,1.45,0,0,0,0-.22c0-.08,0-.14,0-.2h.06a.68.68,0,0,1,0-.23q-.15,0-.15-.09a.84.84,0,0,1,0-.1.82.82,0,0,0,0-.19v-.14c0-.05,0-.08,0-.11s0-.06,0-.08a.14.14,0,0,1,0-.07.15.15,0,0,1,0-.06H184l0-.08-.08,0v0a.25.25,0,0,1,0-.11l.06-.08,0,0,0-.06-.11,0,0-.13a.19.19,0,0,1-.12,0s-.06,0-.06-.1,0-.07,0-.19l0-.36v-.19a.76.76,0,0,0,0-.14v-.06a1,1,0,0,1,0-.26l-.05-.06v-.39l0,0v-.11a.46.46,0,0,1-.06-.16v0a.29.29,0,0,1-.06-.1v-.18a1.3,1.3,0,0,0,0-.17.25.25,0,0,0-.07-.15l-.08,0,0-.13.13-.07a.42.42,0,0,1,.21-.06l.17-.08.07-.07.05,0a1.29,1.29,0,0,1,.35-.1c.07,0,.1,0,.1.09v.14l0,.11a.27.27,0,0,0-.06.14s0,.08,0,.13,0,.14,0,.24h0v0a.22.22,0,0,1-.1,0h-.07l0,0a.16.16,0,0,1-.11.13l.1.16.12,0,.07.12h.05a1.31,1.31,0,0,1-.21.25l-.05.3-.22.24.07.17,0,.6a.38.38,0,0,0,.15.09c.09,0,.13.08.13.12a.45.45,0,0,1,0,.08h-.07a.46.46,0,0,1,.1.34c0,.06-.05.12-.14.17a1.11,1.11,0,0,0,.07.13.43.43,0,0,1,.07.21s0,.05,0,.15v0a.38.38,0,0,0,0,.08v.87s0,.05,0,.07l0,0v0l-.1.07a.35.35,0,0,0,.12.24v0s0,.78,0,.8a2.61,2.61,0,0,1-.07.36V217l-.05.06a.51.51,0,0,1,0,.09q0,.13,0,.21h.11a.54.54,0,0,1,0,.15v.71a.13.13,0,0,0,.1.12.37.37,0,0,1,.14.07h.08l.14,0h.18l.3.07h.27l.14.21.38-.19.16,0,.12,0,.13,0,.16,0h.05l.21,0,.23,0,.22,0h.11l.21,0,.22,0c.14,0,.29,0,.45-.06a.37.37,0,0,0,.14,0,.2.2,0,0,1,.1,0,1.72,1.72,0,0,1,.12.21h0s.08,0,.12-.12a.48.48,0,0,0,0-.21,1.29,1.29,0,0,0,.2-.06,1.17,1.17,0,0,1,.35-.13h0a.29.29,0,0,1,0,.17l-.07.1-.16.23-.16.16h-.11l0,.09-.29-.21-.61.22h0a1.09,1.09,0,0,0-.31,0L187,219l-.3,0-.16,0a.29.29,0,0,1-.19-.08l-.15-.14-.48.18-.11,0h-.22l-.37,0,.05,0h-.19l0,.09-.11-.07-.16,0a.52.52,0,0,1-.33.12l-.25,0a.44.44,0,0,1-.24.07l-.16,0A1.8,1.8,0,0,1,183.31,218.87Z"/><path class="cls-2" d="M190.24,214.54a.12.12,0,0,1-.06-.1l0-.22a4.4,4.4,0,0,1,.11-.45l.2,0a.49.49,0,0,0-.06-.17.14.14,0,0,1,0-.07,1.86,1.86,0,0,1,.12-.37,1.23,1.23,0,0,1,.11-.34l.15-.25.08,0,.08,0a.14.14,0,0,0,.09-.05l.08,0a.34.34,0,0,0,0-.08h-.11l-.05-.16s.05-.09.14-.19a.35.35,0,0,0,.07-.09l.08-.12a.33.33,0,0,0,.11-.16l0,0a.58.58,0,0,1,.13-.16l.18-.12h0l.12-.06v-.11l.59-.47.13-.08.13-.08.11,0a.89.89,0,0,1,.2-.12.3.3,0,0,1,.13,0l.06-.17.19,0v-.09l.2-.06a1.32,1.32,0,0,1,.33-.08l.14,0,.17,0a.33.33,0,0,0,.11-.08h.11l.23,0a.33.33,0,0,1,.15,0l.13,0h.06l.61,0a.44.44,0,0,1,.31.17c.07.07.11.11.13.11s.1-.07.15-.19a.51.51,0,0,0,.25.09h.06l.12,0,.15.05a6.22,6.22,0,0,1,.77.23v.14l-.1.09c-.11.12-.18.18-.22.18a.37.37,0,0,1-.15-.06l-.59-.22-.06-.16-.12,0-.09,0-.29-.09a.27.27,0,0,1-.11-.06.25.25,0,0,0,0-.07l-.19.06H195a1.06,1.06,0,0,0-.32.08l-.27,0-.28,0-.18.08-.22.1-.17.12a1.5,1.5,0,0,0-.66.43,1.09,1.09,0,0,0-.27.13.3.3,0,0,1,0,.1,1.12,1.12,0,0,0-.24.2l-.11.1a1.18,1.18,0,0,1-.18.21.1.1,0,0,1-.07,0h-.06l0,.06s-.07.14-.22.38-.18.2-.2.22l-.2.47,0,.13a1.53,1.53,0,0,0-.16.33l-.06.27c-.05.18-.07.28-.08.3s-.06.07-.15.09a.33.33,0,0,0,.11.2.61.61,0,0,0-.05.15.85.85,0,0,0,0,.25v0a.07.07,0,0,1,0,.06l-.36.13a.07.07,0,0,0,0,0s0,0,0,.05a.78.78,0,0,1,.08.16l0,.1.2.16.08.21a.71.71,0,0,1,0,.17h0l0,.15.06,0a.24.24,0,0,1,0,.14h0a.68.68,0,0,1,0,.12.49.49,0,0,0,.05.17l.08.16a2.06,2.06,0,0,1,.12.39s0,.05-.09.05l.05.11a.28.28,0,0,1,.14,0l.08,0a1.92,1.92,0,0,1,.18.22l.13.12.11.13.25.15a.19.19,0,0,0,.07.16.9.9,0,0,0,.22.11l.2.12.16.08.14.07.15.06.1.08a.28.28,0,0,1,.09.07.19.19,0,0,1,.12-.06s.19,0,.53.14h.59a.11.11,0,0,1,.07,0l.14,0a.14.14,0,0,0,.07-.06l.06,0H195l.37-.05a2.2,2.2,0,0,0,.41-.09l.2.05a.62.62,0,0,0,.23-.11l.21,0a1.28,1.28,0,0,0,.26-.1l.1,0a2,2,0,0,0,.39-.1l.39-.14s0,0,.07-.08l.18-.09a.46.46,0,0,1,.26-.08l.11,0a.21.21,0,0,1,0-.14l.15-.08a.61.61,0,0,1,.17-.08.16.16,0,0,1,.09,0,.87.87,0,0,1-.09.37.52.52,0,0,0-.07.18s0,0-.05.06a1.48,1.48,0,0,1-.38.09l-.21.07-.25.06-.2,0-.21.06-.19,0a1.61,1.61,0,0,1-.33.08h-.33v0c0,.06,0,.09-.11.09h-.17l-.56.13a2.3,2.3,0,0,1-.41,0h-.36a.13.13,0,0,1-.12.07h-.35a1.07,1.07,0,0,1-.31-.08l-.11,0a.17.17,0,0,0-.12.08h-.23q-.08-.12-.15-.12h-.26a1,1,0,0,1-.44-.14,4.34,4.34,0,0,0-.43-.21,5.58,5.58,0,0,0-.5-.29l0-.08h.1v-.07c0-.1,0-.15-.11-.16s-.09.08-.12.08a.69.69,0,0,1-.16-.12l-.31-.21-.09-.13-.05,0-.15-.24a2.64,2.64,0,0,1-.48-1.08l.09,0V216l-.1-.07a.41.41,0,0,0,0-.19l0-.1s-.06-.08-.06-.1v-.17l0-.2,0-.09a.82.82,0,0,1-.05-.17.31.31,0,0,1,.07-.2A.83.83,0,0,0,190.24,214.54Z"/></svg>